<svg width="56" height="56" fill="none" xmlns="http://www.w3.org/2000/svg"><path fill-rule="evenodd" clip-rule="evenodd" d="M28 56c15.464 0 28-12.536 28-28S43.464 0 28 0 0 12.536 0 28s12.536 28 28 28z" fill="#F2F2F2"/><path fill-rule="evenodd" clip-rule="evenodd" d="M21.844 13h14.218c2.244 0 4.063 1.79 4.063 4v22c0 2.21-1.819 4-4.063 4H21.845V13zm14.218 8.667c0-.369-.454-.667-1.015-.667h-8.125c-.561 0-1.016.299-1.016.667v2.666c0 .369.455.667 1.016.667h8.125c.56 0 1.016-.299 1.016-.667v-2.666z" fill="#A6A6A6"/><mask id="a" maskUnits="userSpaceOnUse" x="21" y="13" width="20" height="30"><path fill-rule="evenodd" clip-rule="evenodd" d="M21.844 13h14.218c2.244 0 4.063 1.79 4.063 4v22c0 2.21-1.819 4-4.063 4H21.845V13zm14.218 8.667c0-.369-.454-.667-1.015-.667h-8.125c-.561 0-1.016.299-1.016.667v2.666c0 .369.455.667 1.016.667h8.125c.56 0 1.016-.299 1.016-.667v-2.666z" fill="#00A82D"/></mask><g opacity=".3" fill-rule="evenodd" clip-rule="evenodd" fill="#1A1A1A" mask="url(#a)"><path d="M25.687 13.39a.662.662 0 11-1.325 0 .662.662 0 011.325 0M23.203 15.908a.662.662 0 11-1.324 0 .662.662 0 011.324 0M30.717 13.39a.662.662 0 11-1.324 0 .662.662 0 011.324 0M28.234 15.908a.662.662 0 11-1.324 0 .662.662 0 011.324 0M35.75 13.39a.662.662 0 11-1.325 0 .662.662 0 011.325 0M33.267 15.908a.662.662 0 11-1.324 0 .662.662 0 011.323 0M25.687 18.424a.662.662 0 11-1.325 0 .662.662 0 011.325 0M23.203 20.943a.662.662 0 11-1.324 0 .662.662 0 011.324 0M30.717 18.424a.662.662 0 11-1.324 0 .662.662 0 011.324 0M28.234 20.943a.662.662 0 11-1.324 0 .662.662 0 011.324 0M35.75 18.424a.662.662 0 11-1.325 0 .662.662 0 011.325 0M33.267 20.943a.662.662 0 11-1.325 0 .662.662 0 011.325 0M25.684 23.456a.662.662 0 11-1.324 0 .662.662 0 011.325 0M23.202 25.975a.662.662 0 11-1.325 0 .662.662 0 011.325 0M30.715 23.456a.662.662 0 11-1.324 0 .662.662 0 011.324 0M28.232 25.975a.662.662 0 11-1.325 0 .662.662 0 011.325 0M35.748 23.456a.662.662 0 11-1.324 0 .662.662 0 011.324 0M33.265 25.975a.662.662 0 11-1.325 0 .662.662 0 011.325 0M40.822 13.39a.662.662 0 11-1.325 0 .662.662 0 011.325 0M38.338 15.908a.662.662 0 11-1.324 0 .662.662 0 011.324 0M40.822 18.424a.662.662 0 11-1.324 0 .662.662 0 011.324 0M38.338 20.943a.662.662 0 11-1.324 0 .662.662 0 011.324 0M40.82 23.456a.662.662 0 11-1.324 0 .662.662 0 011.324 0M38.336 25.975a.662.662 0 11-1.324 0 .662.662 0 011.324 0M25.687 28.577a.662.662 0 11-1.324 0 .662.662 0 011.324 0M23.203 31.095a.662.662 0 11-1.324 0 .662.662 0 011.324 0M30.717 28.577a.662.662 0 11-1.323 0 .662.662 0 011.323 0M28.234 31.095a.662.662 0 11-1.325 0 .662.662 0 011.325 0M35.75 28.577a.662.662 0 11-1.324 0 .662.662 0 011.324 0M33.267 31.095a.662.662 0 11-1.325 0 .662.662 0 011.325 0M25.687 33.611a.662.662 0 11-1.324 0 .662.662 0 011.324 0M23.203 36.13a.662.662 0 11-1.324 0 .662.662 0 011.324 0M30.717 33.611a.662.662 0 11-1.324 0 .662.662 0 011.324 0M28.234 36.13a.662.662 0 11-1.325 0 .662.662 0 011.325 0M35.75 33.611a.662.662 0 11-1.324 0 .662.662 0 011.324 0M33.267 36.13a.662.662 0 11-1.325 0 .662.662 0 011.325 0M25.684 38.644a.662.662 0 11-1.324 0 .662.662 0 011.325 0M23.202 41.162a.662.662 0 11-1.325 0 .662.662 0 011.325 0M30.715 38.644a.662.662 0 11-1.324 0 .662.662 0 011.324 0M28.232 41.162a.662.662 0 11-1.325 0 .662.662 0 011.325 0M35.748 38.644a.662.662 0 11-1.324 0 .662.662 0 011.324 0M33.265 41.162a.662.662 0 11-1.325 0 .662.662 0 011.325 0M40.822 28.577a.662.662 0 11-1.324 0 .662.662 0 011.324 0M38.338 31.095a.662.662 0 11-1.324 0 .662.662 0 011.324 0M40.822 33.611a.662.662 0 11-1.324 0 .662.662 0 011.324 0M38.338 36.13a.662.662 0 11-1.324 0 .662.662 0 011.324 0M40.82 38.644a.662.662 0 11-1.324 0 .662.662 0 011.324 0M38.336 41.162a.662.662 0 11-1.324 0 .662.662 0 011.324 0"/></g><path d="M15.75 13h4.063v30H15.75V13z" fill="#00A82D"/></svg>