<svg width="56" height="56" fill="none" xmlns="http://www.w3.org/2000/svg"><path fill-rule="evenodd" clip-rule="evenodd" d="M28 56c15.464 0 28-12.536 28-28S43.464 0 28 0 0 12.536 0 28s12.536 28 28 28z" fill="#F2F2F2"/><path fill-rule="evenodd" clip-rule="evenodd" d="M25.784 44.376L13.7 37.286a.699.699 0 01-.346-.603v-14.42c0-.54.587-.876 1.053-.602l12.085 7.09a.698.698 0 01.346.602v14.42a.7.7 0 01-1.054.603z" fill="#00A82D"/><path fill-rule="evenodd" clip-rule="evenodd" d="M29.519 44.376l12.084-7.09a.701.701 0 00.346-.604V22.264a.7.7 0 00-1.054-.603l-12.084 7.09a.7.7 0 00-.346.603v14.418a.7.7 0 001.054.604z" fill="#000"/><mask id="a" maskUnits="userSpaceOnUse" x="28" y="21" width="14" height="24"><path fill-rule="evenodd" clip-rule="evenodd" d="M29.519 44.376l12.084-7.09a.701.701 0 00.346-.604V22.264a.7.7 0 00-1.054-.603l-12.084 7.09a.7.7 0 00-.346.603v14.418a.7.7 0 001.054.604z" fill="#fff"/></mask><g mask="url(#a)" fill-rule="evenodd" clip-rule="evenodd" fill="#00A82D"><path d="M39.082 26.936c-.01 0-.017-.002-.024-.003l-.003-.001a.071.071 0 01-.018-.004.155.155 0 01-.074-.061.182.182 0 01-.02-.15l.118-.408a.081.081 0 00-.012-.07.072.072 0 00-.011-.012l-.305-.25a.166.166 0 01-.054-.084.184.184 0 01.02-.15.15.15 0 01.117-.069l.379.002a.06.06 0 00.05-.03.075.075 0 00.01-.02l.115-.41c.02-.069.075-.116.139-.116.063 0 .12.047.139.116l.115.41a.075.075 0 00.009.02.06.06 0 00.051.03l.376-.002c.016 0 .032.003.046.008a.156.156 0 01.094.107.185.185 0 01-.054.187l-.305.251a.08.08 0 00-.023.081l.117.409a.19.19 0 01-.02.15.157.157 0 01-.032.037.133.133 0 01-.086.032.134.134 0 01-.087-.032l-.303-.254a.06.06 0 00-.018-.01l-.005-.002a.083.083 0 00-.012-.002h-.005a.056.056 0 00-.013.003l-.005.002a.06.06 0 00-.017.009l-.303.254a.141.141 0 01-.041.024l-.015.003c-.01.003-.02.005-.03.005zM39.08 31.718a.093.093 0 01-.023-.003h-.003a.067.067 0 01-.018-.005.156.156 0 01-.074-.061.181.181 0 01-.02-.15l.118-.407a.081.081 0 00-.012-.07.068.068 0 00-.011-.012l-.305-.251a.167.167 0 01-.054-.084.188.188 0 01.02-.15.15.15 0 01.117-.068l.379.001a.06.06 0 00.05-.03.08.08 0 00.01-.02l.115-.41c.02-.069.075-.115.139-.115.063 0 .12.046.139.116l.115.409a.076.076 0 00.009.02.06.06 0 00.051.03l.376-.002c.016 0 .032.003.046.009a.156.156 0 01.093.107.185.185 0 01-.053.187l-.305.25a.068.068 0 00-.014.017.08.08 0 00-.01.065l.119.408a.19.19 0 01-.02.15.157.157 0 01-.033.038.133.133 0 01-.086.031.134.134 0 01-.087-.032l-.303-.254a.063.063 0 00-.018-.01l-.005-.001a.083.083 0 00-.012-.002h-.005a.056.056 0 00-.013.002l-.005.002a.06.06 0 00-.016.01l-.304.253a.143.143 0 01-.041.024.067.067 0 01-.015.004l-.03.005zM39.08 36.5a.093.093 0 01-.023-.002l-.003-.001a.067.067 0 01-.018-.004.14.14 0 01-.041-.024.158.158 0 01-.033-.038.182.182 0 01-.02-.15l.118-.407a.081.081 0 00-.012-.07.064.064 0 00-.011-.012l-.305-.25a.166.166 0 01-.054-.084.188.188 0 01.02-.15.15.15 0 01.117-.069l.379.002a.06.06 0 00.05-.03.08.08 0 00.01-.02l.115-.41c.02-.07.075-.116.139-.116.063 0 .12.047.139.116l.115.409a.076.076 0 00.009.02.06.06 0 00.051.03l.376-.001c.016 0 .032.003.046.008a.156.156 0 01.093.107.184.184 0 01-.053.187l-.305.251a.068.068 0 00-.014.017.08.08 0 00-.01.065l.119.408a.19.19 0 01-.02.15.159.159 0 01-.033.037.133.133 0 01-.086.032.134.134 0 01-.087-.032l-.303-.254a.06.06 0 00-.018-.01l-.005-.002-.012-.002h-.005a.05.05 0 00-.013.003l-.005.001a.06.06 0 00-.016.01l-.304.254a.143.143 0 01-.041.024.06.06 0 01-.015.003c-.01.003-.02.005-.03.005zM39.08 41.283c-.008 0-.016-.002-.023-.003h-.003a.072.072 0 01-.018-.005.157.157 0 01-.074-.061.182.182 0 01-.02-.15l.118-.407a.081.081 0 00-.012-.07.068.068 0 00-.011-.012l-.305-.251a.167.167 0 01-.054-.084.188.188 0 01.02-.15.15.15 0 01.117-.069l.379.002a.06.06 0 00.05-.03.078.078 0 00.01-.02l.115-.41c.02-.069.075-.115.139-.115.063 0 .12.046.139.116l.115.408a.075.075 0 00.009.021.06.06 0 00.051.03l.376-.002c.016 0 .032.003.046.009a.156.156 0 01.093.107.185.185 0 01-.053.187l-.305.25a.066.066 0 00-.014.017.08.08 0 00-.01.065l.119.408a.19.19 0 01-.02.15.155.155 0 01-.033.038.133.133 0 01-.086.031.134.134 0 01-.087-.032l-.303-.254a.06.06 0 00-.018-.01l-.005-.001-.012-.002h-.005a.05.05 0 00-.013.002l-.005.002a.06.06 0 00-.016.01l-.304.253a.14.14 0 01-.041.024c-.006.003-.012.003-.015.004-.01.002-.02.004-.03.004zM39.08 46.066a.093.093 0 01-.023-.004h-.003a.067.067 0 01-.018-.004.14.14 0 01-.041-.024.158.158 0 01-.033-.038.182.182 0 01-.02-.15l.118-.407a.081.081 0 00-.012-.07.064.064 0 00-.011-.012l-.305-.251a.166.166 0 01-.054-.084.188.188 0 01.02-.149.15.15 0 01.117-.07l.379.002a.06.06 0 00.05-.03.08.08 0 00.01-.02l.115-.41c.02-.068.075-.115.139-.115.063 0 .12.047.139.116l.115.409a.076.076 0 00.009.02.06.06 0 00.051.03l.376-.001c.016 0 .032.003.046.008a.156.156 0 01.093.107.184.184 0 01-.053.187l-.305.25a.068.068 0 00-.014.017.08.08 0 00-.01.065l.119.408a.19.19 0 01-.02.15.157.157 0 01-.033.038.133.133 0 01-.172 0l-.303-.254a.06.06 0 00-.019-.011l-.005-.001-.012-.002h-.005a.05.05 0 00-.013.003l-.005.001a.06.06 0 00-.016.01l-.304.253a.14.14 0 01-.041.024.057.057 0 01-.015.004c-.01.002-.02.005-.03.005zM34.896 29.327a.093.093 0 01-.023-.003l-.004-.001a.065.065 0 01-.017-.004.156.156 0 01-.074-.062.181.181 0 01-.02-.149l.117-.407a.085.085 0 00.002-.04.076.076 0 00-.025-.042l-.305-.251a.167.167 0 01-.053-.084.193.193 0 010-.103.173.173 0 01.02-.046.15.15 0 01.116-.07l.38.002a.06.06 0 00.05-.03.08.08 0 00.01-.02l.114-.41c.02-.069.076-.115.14-.115.063 0 .119.046.138.116l.115.408a.079.079 0 00.01.021.06.06 0 00.05.03l.377-.002c.016 0 .031.003.046.009a.156.156 0 01.093.107.192.192 0 010 .103.166.166 0 01-.053.084l-.305.25a.07.07 0 00-.015.017.08.08 0 00-.009.065l.118.408a.182.182 0 01-.02.15.162.162 0 01-.033.037.133.133 0 01-.086.032.134.134 0 01-.086-.032l-.303-.254a.063.063 0 00-.018-.01l-.006-.001a.081.081 0 00-.012-.002h-.005l-.013.002-.005.002a.06.06 0 00-.016.01l-.303.253a.143.143 0 01-.042.024.068.068 0 01-.015.004c-.01.002-.02.004-.03.004zM34.896 34.11c-.009 0-.017-.002-.023-.004h-.004l-.017-.004a.143.143 0 01-.042-.024.158.158 0 01-.032-.038.182.182 0 01-.02-.15l.117-.407a.085.085 0 00.002-.04.076.076 0 00-.025-.042l-.305-.25a.167.167 0 01-.053-.084.192.192 0 010-.104.173.173 0 01.02-.046.15.15 0 01.116-.07l.38.002a.06.06 0 00.05-.03.08.08 0 00.01-.02l.114-.409c.02-.07.076-.116.14-.116.063 0 .119.047.138.116l.115.409a.079.079 0 00.01.02.06.06 0 00.05.03l.377-.001c.016 0 .031.003.046.008a.156.156 0 01.093.107.191.191 0 010 .104.166.166 0 01-.053.083l-.305.251a.068.068 0 00-.015.017.08.08 0 00-.009.064l.118.409a.181.181 0 01-.02.15.158.158 0 01-.033.037.133.133 0 01-.172 0l-.303-.254a.06.06 0 00-.018-.01l-.006-.002a.122.122 0 00-.012-.002h-.005l-.013.003-.005.001a.06.06 0 00-.016.01l-.303.254a.14.14 0 01-.042.024l-.015.003c-.01.003-.02.005-.03.005zM34.896 38.892a.094.094 0 01-.023-.003h-.004a.065.065 0 01-.017-.004.14.14 0 01-.042-.024.158.158 0 01-.032-.038.182.182 0 01-.02-.15l.117-.407a.085.085 0 00.002-.04.077.077 0 00-.014-.03.068.068 0 00-.01-.012l-.306-.251a.167.167 0 01-.053-.084.192.192 0 010-.103.175.175 0 01.02-.046.15.15 0 01.116-.07l.38.002a.06.06 0 00.05-.03.08.08 0 00.01-.02l.114-.41c.02-.069.076-.115.14-.115.063 0 .119.046.138.116l.115.409a.079.079 0 00.01.02.06.06 0 00.05.03l.377-.001c.016 0 .031.002.046.008a.156.156 0 01.093.107.192.192 0 010 .103.166.166 0 01-.053.084l-.305.25a.07.07 0 00-.015.017.08.08 0 00-.009.065l.118.408a.182.182 0 01-.02.15.162.162 0 01-.033.038.133.133 0 01-.086.032.134.134 0 01-.086-.033l-.303-.254a.06.06 0 00-.018-.01l-.006-.001a.122.122 0 00-.012-.002h-.005l-.013.002-.005.002a.06.06 0 00-.016.01l-.303.253a.143.143 0 01-.042.025.061.061 0 01-.015.003c-.01.002-.02.005-.03.005zM34.896 43.675c-.009 0-.017-.002-.023-.003l-.004-.001c-.005 0-.01-.002-.017-.004a.157.157 0 01-.074-.061.182.182 0 01-.02-.15l.117-.408a.085.085 0 00.002-.04.076.076 0 00-.025-.041l-.305-.252a.167.167 0 01-.053-.083.192.192 0 010-.104.172.172 0 01.02-.046.15.15 0 01.116-.069l.38.002a.06.06 0 00.05-.03.08.08 0 00.01-.02l.114-.41c.02-.069.076-.116.14-.116.063 0 .119.047.138.116l.115.41a.08.08 0 00.01.02.06.06 0 00.05.03l.377-.002c.016 0 .031.003.046.008a.155.155 0 01.093.107.193.193 0 010 .104.166.166 0 01-.053.083l-.305.251a.068.068 0 00-.015.017.08.08 0 00-.009.065l.118.408a.181.181 0 01-.02.15.158.158 0 01-.033.037.133.133 0 01-.086.032.134.134 0 01-.086-.032l-.303-.254a.06.06 0 00-.018-.01l-.006-.002-.012-.002h-.005l-.013.003-.005.002a.06.06 0 00-.016.009l-.303.254a.14.14 0 01-.042.024l-.015.003c-.01.003-.02.005-.03.005zM30.712 26.936c-.01 0-.017-.002-.024-.003l-.003-.001a.07.07 0 01-.018-.004.155.155 0 01-.074-.061.182.182 0 01-.02-.15l.117-.408a.085.085 0 00.002-.04.076.076 0 00-.024-.041l-.305-.252a.166.166 0 01-.054-.083.184.184 0 01.02-.15.15.15 0 01.117-.069l.379.002a.06.06 0 00.05-.03.075.075 0 00.01-.02l.115-.41c.02-.069.075-.116.139-.116.063 0 .12.047.139.116l.114.41a.078.078 0 00.01.02.06.06 0 00.05.03l.377-.002c.016 0 .031.003.046.008a.155.155 0 01.093.107.188.188 0 010 .104.167.167 0 01-.053.083l-.305.251a.079.079 0 00-.023.081l.117.409a.19.19 0 01-.02.15.156.156 0 01-.033.037.133.133 0 01-.172 0l-.303-.254a.06.06 0 00-.018-.01l-.005-.002a.082.082 0 00-.013-.002h-.005a.055.055 0 00-.012.003l-.005.002a.06.06 0 00-.017.009l-.303.254a.141.141 0 01-.041.024l-.015.003c-.01.003-.02.005-.03.005zM30.712 31.718a.092.092 0 01-.024-.003h-.003a.065.065 0 01-.018-.005.154.154 0 01-.074-.061.181.181 0 01-.02-.15l.117-.407a.085.085 0 00.002-.04.076.076 0 00-.024-.042l-.305-.251a.166.166 0 01-.054-.084.184.184 0 01.02-.15.15.15 0 01.117-.068l.379.001a.06.06 0 00.05-.03.076.076 0 00.01-.02l.115-.41c.02-.069.075-.115.139-.115.063 0 .12.046.139.116l.114.409a.08.08 0 00.01.02.06.06 0 00.05.03l.377-.002c.016 0 .031.003.046.009a.156.156 0 01.093.107.188.188 0 010 .103.167.167 0 01-.053.084l-.305.25a.067.067 0 00-.014.017.08.08 0 00-.01.065l.118.408a.19.19 0 01-.02.15.157.157 0 01-.033.038.133.133 0 01-.085.031.134.134 0 01-.087-.032l-.303-.254a.063.063 0 00-.018-.01l-.005-.001a.082.082 0 00-.013-.002h-.005a.055.055 0 00-.012.002l-.005.002a.06.06 0 00-.017.01l-.303.253a.141.141 0 01-.041.024.067.067 0 01-.015.004l-.03.005zM30.712 36.5a.092.092 0 01-.024-.002l-.003-.001a.065.065 0 01-.018-.004.155.155 0 01-.074-.062.182.182 0 01-.02-.15l.117-.407a.085.085 0 00.002-.04.077.077 0 00-.013-.03.065.065 0 00-.011-.012l-.305-.25a.165.165 0 01-.054-.084.184.184 0 01.02-.15.15.15 0 01.117-.069l.379.002a.06.06 0 00.05-.03.078.078 0 00.01-.02l.115-.41c.02-.07.075-.116.139-.116.063 0 .12.047.139.116l.114.409a.079.079 0 00.01.02.06.06 0 00.05.03l.377-.001c.016 0 .031.003.046.008a.156.156 0 01.093.107.188.188 0 010 .104.166.166 0 01-.053.083l-.305.251a.067.067 0 00-.014.017.08.08 0 00-.01.065l.118.408a.19.19 0 01-.02.15.16.16 0 01-.033.037.133.133 0 01-.085.032.133.133 0 01-.087-.032l-.303-.254a.06.06 0 00-.018-.01l-.005-.002-.013-.002h-.005a.05.05 0 00-.012.003l-.005.001a.06.06 0 00-.017.01l-.303.254a.141.141 0 01-.041.024.06.06 0 01-.015.003c-.01.003-.02.005-.03.005zM30.712 41.283c-.01 0-.017-.002-.024-.003h-.003a.07.07 0 01-.018-.005.155.155 0 01-.074-.061.182.182 0 01-.02-.15l.117-.407a.085.085 0 00.002-.04.076.076 0 00-.024-.042l-.305-.251a.166.166 0 01-.054-.084.184.184 0 01.02-.15.15.15 0 01.117-.069l.379.002a.06.06 0 00.05-.03.075.075 0 00.01-.02l.115-.41c.02-.069.075-.115.139-.115.063 0 .12.046.139.116l.114.408a.078.078 0 00.01.021.06.06 0 00.05.03l.377-.002c.016 0 .031.003.046.009a.155.155 0 01.093.107.189.189 0 010 .103.167.167 0 01-.053.084l-.305.25a.08.08 0 00-.023.081l.117.41a.19.19 0 01-.02.149.156.156 0 01-.033.038.133.133 0 01-.172 0l-.303-.255a.06.06 0 00-.018-.01l-.005-.001-.013-.002h-.005a.05.05 0 00-.012.002l-.005.002a.06.06 0 00-.017.01l-.303.253a.14.14 0 01-.041.024c-.007.003-.012.003-.015.004-.01.002-.02.004-.03.004zM30.712 46.066a.092.092 0 01-.024-.004h-.003a.065.065 0 01-.018-.004.155.155 0 01-.074-.061.182.182 0 01-.02-.15l.117-.408a.085.085 0 00.002-.04.077.077 0 00-.013-.03.065.065 0 00-.011-.012l-.305-.251a.165.165 0 01-.054-.084.184.184 0 01.02-.149.15.15 0 01.117-.07l.379.002a.06.06 0 00.05-.03.078.078 0 00.01-.02l.115-.41c.02-.068.075-.115.139-.115.063 0 .12.047.139.116l.114.409a.079.079 0 00.01.02.06.06 0 00.05.03l.377-.001c.016 0 .031.003.046.008a.156.156 0 01.093.107.188.188 0 010 .103.166.166 0 01-.053.084l-.305.25a.067.067 0 00-.014.017.08.08 0 00-.01.065l.118.408a.19.19 0 01-.02.15.157.157 0 01-.033.038.133.133 0 01-.172 0l-.303-.254a.06.06 0 00-.018-.011l-.005-.001-.013-.002h-.005a.05.05 0 00-.012.003l-.005.001a.06.06 0 00-.017.01l-.303.253a.139.139 0 01-.041.024.057.057 0 01-.015.004c-.01.002-.02.005-.03.005z"/></g><path fill-rule="evenodd" clip-rule="evenodd" d="M14.452 19.526l12.843 7.418a.707.707 0 00.7.004l12.852-7.206a.707.707 0 00-.001-1.234L28.05 11.35a.71.71 0 00-.68-.005l-12.9 6.945a.707.707 0 00-.018 1.235z" fill="#CADA2A"/><mask id="b" maskUnits="userSpaceOnUse" x="14" y="11" width="28" height="17"><path fill-rule="evenodd" clip-rule="evenodd" d="M14.452 19.526l12.843 7.418a.707.707 0 00.7.004l12.852-7.206a.707.707 0 00-.001-1.234L28.05 11.35a.71.71 0 00-.68-.005l-12.9 6.945a.707.707 0 00-.018 1.235z" fill="#fff"/></mask><g mask="url(#b)" fill-rule="evenodd" clip-rule="evenodd" fill="#0CB14B"><path d="M16.443 12.455a.445.445 0 11-.89 0 .445.445 0 01.89 0zM19.822 12.455a.445.445 0 11-.89 0 .445.445 0 01.89 0zM14.73 14.144a.445.445 0 11-.89 0 .445.445 0 01.89 0zM18.108 14.144a.445.445 0 11-.89 0 .445.445 0 01.89 0zM16.439 15.836a.445.445 0 11-.89 0 .445.445 0 01.89 0zM21.49 14.144a.445.445 0 11-.889 0 .445.445 0 01.89 0zM19.821 15.836a.445.445 0 11-.89 0 .445.445 0 01.89 0zM23.23 12.455a.445.445 0 11-.89 0 .445.445 0 01.89 0zM26.609 12.455a.445.445 0 11-.89 0 .445.445 0 01.89 0zM29.992 12.455a.445.445 0 11-.89 0 .445.445 0 01.89 0zM24.896 14.144a.445.445 0 11-.89 0 .445.445 0 01.89 0zM23.23 15.836a.445.445 0 11-.89 0 .445.445 0 01.89 0zM28.277 14.144a.445.445 0 11-.89 0 .445.445 0 01.89 0zM26.609 15.836a.445.445 0 11-.89 0 .445.445 0 01.89 0zM31.66 14.144a.445.445 0 11-.89 0 .445.445 0 01.89 0zM29.99 15.836a.445.445 0 11-.889 0 .445.445 0 01.89 0zM33.399 12.455a.445.445 0 11-.89 0 .445.445 0 01.89 0zM36.78 12.455a.445.445 0 11-.89 0 .445.445 0 01.89 0zM40.158 12.455a.445.445 0 11-.889 0 .445.445 0 01.89 0zM35.067 14.144a.445.445 0 11-.89 0 .445.445 0 01.89 0zM33.397 15.836a.445.445 0 11-.89 0 .445.445 0 01.89 0zM38.445 14.144a.445.445 0 11-.89 0 .445.445 0 01.89 0zM36.777 15.836a.445.445 0 11-.89 0 .445.445 0 01.89 0zM41.826 14.144a.445.445 0 11-.89 0 .445.445 0 01.89 0zM40.157 15.836a.445.445 0 11-.89 0 .445.445 0 01.89 0zM14.732 17.585a.445.445 0 11-.89 0 .445.445 0 01.89 0zM18.11 17.585a.445.445 0 11-.89 0 .445.445 0 01.89 0zM16.443 19.277a.445.445 0 11-.89 0 .445.445 0 01.89 0zM21.491 17.585a.445.445 0 11-.89 0 .445.445 0 01.89 0zM19.822 19.277a.445.445 0 11-.89 0 .445.445 0 01.89 0zM14.732 20.967a.445.445 0 11-.89 0 .445.445 0 01.89 0zM18.11 20.967a.445.445 0 11-.89 0 .445.445 0 01.89 0zM16.443 22.66a.445.445 0 11-.89-.001.445.445 0 01.89 0zM21.491 20.967a.445.445 0 11-.89 0 .445.445 0 01.89 0zM19.822 22.66a.445.445 0 11-.89-.001.445.445 0 01.89 0zM14.73 24.348a.445.445 0 11-.89 0 .445.445 0 01.89 0zM18.108 24.348a.445.445 0 11-.89 0 .445.445 0 01.89 0zM16.439 26.04a.445.445 0 11-.89 0 .445.445 0 01.89 0zM21.49 24.348a.445.445 0 11-.889 0 .445.445 0 01.89 0zM19.821 26.04a.445.445 0 11-.89 0 .445.445 0 01.89 0zM24.899 17.585a.445.445 0 11-.89 0 .445.445 0 01.89 0zM23.23 19.277a.445.445 0 11-.89 0 .445.445 0 01.89 0zM28.28 17.585a.445.445 0 11-.89 0 .445.445 0 01.89 0zM26.609 19.277a.445.445 0 11-.89 0 .445.445 0 01.89 0zM31.659 17.585a.445.445 0 11-.89 0 .445.445 0 01.89 0zM29.992 19.277a.445.445 0 11-.89 0 .445.445 0 01.89 0zM24.899 20.967a.445.445 0 11-.89 0 .445.445 0 01.89 0zM23.23 22.66a.445.445 0 11-.89-.001.445.445 0 01.89 0zM28.28 20.967a.445.445 0 11-.89 0 .445.445 0 01.89 0zM26.609 22.66a.445.445 0 11-.89-.001.445.445 0 01.89 0zM31.659 20.967a.445.445 0 11-.89 0 .445.445 0 01.89 0zM29.992 22.66a.445.445 0 11-.89-.001.445.445 0 01.89 0zM24.896 24.348a.445.445 0 11-.89 0 .445.445 0 01.89 0zM23.23 26.04a.445.445 0 11-.89 0 .445.445 0 01.89 0zM28.277 24.348a.445.445 0 11-.89 0 .445.445 0 01.89 0zM26.609 26.04a.445.445 0 11-.89 0 .445.445 0 01.89 0zM31.66 24.348a.445.445 0 11-.89 0 .445.445 0 01.89 0zM29.99 26.04a.445.445 0 11-.89 0 .445.445 0 01.89 0zM35.068 17.585a.445.445 0 11-.89 0 .445.445 0 01.89 0zM33.399 19.277a.445.445 0 11-.89 0 .445.445 0 01.89 0zM38.446 17.585a.445.445 0 11-.89 0 .445.445 0 01.89 0zM36.78 19.277a.445.445 0 11-.89 0 .445.445 0 01.89 0zM41.828 17.585a.445.445 0 11-.89 0 .445.445 0 01.89 0zM40.158 19.277a.445.445 0 11-.89 0 .445.445 0 01.89 0zM35.068 20.967a.445.445 0 11-.89 0 .445.445 0 01.89 0zM33.399 22.66a.445.445 0 11-.89-.001.445.445 0 01.89 0zM38.446 20.967a.445.445 0 11-.89 0 .445.445 0 01.89 0zM36.78 22.66a.445.445 0 11-.89-.001.445.445 0 01.89 0zM41.828 20.967a.445.445 0 11-.89 0 .445.445 0 01.89 0zM40.158 22.66a.445.445 0 11-.89-.001.445.445 0 01.89 0zM35.067 24.348a.445.445 0 11-.89 0 .445.445 0 01.89 0zM33.397 26.04a.445.445 0 11-.89 0 .445.445 0 01.89 0zM38.445 24.348a.445.445 0 11-.89 0 .445.445 0 01.89 0zM36.777 26.04a.445.445 0 11-.89 0 .445.445 0 01.89 0zM41.826 24.348a.445.445 0 11-.89 0 .445.445 0 01.89 0zM40.157 26.04a.445.445 0 11-.89 0 .445.445 0 01.89 0z"/></g></svg>