<svg width="64" height="65" xmlns="http://www.w3.org/2000/svg"><g fill="none" fill-rule="evenodd"><circle cx="32" cy="32.462" r="32" transform="translate(0 -.462)" fill="#F5F5F5"/><g fill-rule="nonzero"><path d="M40.816 30.322H27.514a2.103 2.103 0 110-4.205h13.152l-5.527-5.528a2.103 2.103 0 112.974-2.973l8.92 8.92a2.1 2.1 0 01.6 1.758 2.1 2.1 0 01-.6 1.758l-8.92 8.92A2.103 2.103 0 1135.139 36l5.677-5.677z" stroke="#00A82D" fill="#00A82D"/><path d="M22.834 39.734h13.301a2.103 2.103 0 100-4.206H22.983l5.527-5.527a2.103 2.103 0 10-2.973-2.973l-8.921 8.92a2.1 2.1 0 00-.599 1.758 2.1 2.1 0 00.599 1.757l8.92 8.921a2.103 2.103 0 102.974-2.973l-5.676-5.677z" stroke="#CEDC00" fill="#CEDC00" style="mix-blend-mode:multiply"/></g></g></svg>