<?xml version="1.0" encoding="utf-8"?>
<!-- Generator: Adobe Illustrator 16.0.0, SVG Export Plug-In . SVG Version: 6.00 Build 0)  -->
<!DOCTYPE svg PUBLIC "-//W3C//DTD SVG 1.1//EN" "http://www.w3.org/Graphics/SVG/1.1/DTD/svg11.dtd">
<svg version="1.1" id="katman_1" xmlns="http://www.w3.org/2000/svg" xmlns:xlink="http://www.w3.org/1999/xlink" x="0px" y="0px"
	 width="60px" height="60px" viewBox="0 0 60 60" enable-background="new 0 0 60 60" xml:space="preserve">
<path fill="#00A82D" d="M21.066,13.528c0,0.596-0.049,1.588-0.645,2.233c-0.646,0.596-1.638,0.645-2.233,0.645h-6.353
	c-1.836,0-2.929,0-3.672,0.1c-0.397,0.049-0.893,0.248-1.142,0.347c-0.099,0.05-0.099,0-0.049-0.049L21.464,2.063
	c0.049-0.049,0.1-0.049,0.049,0.049c-0.099,0.248-0.298,0.745-0.347,1.142c-0.1,0.745-0.1,1.837-0.1,3.673V13.528z M34.566,58.098
	c-1.687-1.094-2.581-2.532-2.928-3.426c-0.348-0.845-0.547-1.787-0.547-2.729c0-4.118,3.375-7.494,7.546-7.494
	c1.24,0,2.232,0.992,2.232,2.233c0,0.845-0.447,1.539-1.143,1.935c-0.248,0.15-0.596,0.25-0.844,0.298
	c-0.246,0.051-1.19,0.15-1.637,0.548c-0.498,0.396-0.894,1.042-0.894,1.737c0,0.743,0.298,1.438,0.793,1.934
	c0.894,0.894,2.085,1.389,3.373,1.389c3.379,0,6.107-2.729,6.107-6.104c0-3.029-2.033-5.706-4.714-6.898
	c-0.397-0.2-1.043-0.346-1.638-0.498c-0.746-0.149-1.44-0.247-1.49-0.247c-2.085-0.247-7.296-1.886-7.643-6.5
	c0,0-1.539,6.947-4.617,8.833c-0.297,0.147-0.694,0.298-1.141,0.397c-0.447,0.101-0.944,0.148-1.093,0.148
	c-5.012,0.297-10.323-1.291-13.996-5.062c0,0-2.481-2.034-3.771-7.743c-0.298-1.389-0.894-3.871-1.241-6.204
	c-0.149-0.842-0.199-1.489-0.248-2.084c0-2.432,1.489-4.07,3.375-4.318c0.049,0,0.198,0,0.297,0c1.141,0,9.827,0,9.827,0
	c1.737,0,2.73-0.447,3.375-1.042c0.843-0.794,1.042-1.936,1.042-3.276c0,0,0-9.032,0-10.174c0-0.05,0-0.248,0-0.297
	c0.248-1.837,1.886-3.375,4.317-3.375c0,0,0.745,0,1.191,0c0.496,0,1.091,0.05,1.638,0.099c0.396,0.05,0.745,0.149,1.34,0.298
	c3.027,0.745,3.673,3.822,3.673,3.822s5.708,0.993,8.586,1.489c2.731,0.496,9.48,0.943,10.77,7.743
	c3.029,16.179,1.193,31.861,1.043,31.861c-2.135,15.287-14.84,14.545-14.84,14.545C37.94,59.934,35.906,59.038,34.566,58.098z
	 M45.981,25.588c-1.638-0.149-3.025,0.496-3.524,1.737c-0.098,0.248-0.198,0.545-0.149,0.696c0.052,0.147,0.149,0.198,0.249,0.247
	c0.597,0.297,1.589,0.448,3.027,0.596c1.44,0.149,2.432,0.248,3.078,0.149c0.098,0,0.198-0.05,0.298-0.199
	c0.098-0.148,0.05-0.447,0.05-0.694C48.813,26.729,47.62,25.787,45.981,25.588z"/>
</svg>
