<svg width="64" height="65" xmlns="http://www.w3.org/2000/svg" xmlns:xlink="http://www.w3.org/1999/xlink"><defs><rect id="a" x="0" y="0" width="25.6" height="32" rx="3"/></defs><g fill="none" fill-rule="evenodd"><circle cx="32" cy="32" r="32" transform="translate(0 .538)" fill="#F5F5F5"/><g transform="translate(21.4 17)"><mask id="b" fill="#fff"><use xlink:href="#a"/></mask><use fill="#00A82D" xlink:href="#a"/><g fill="#FFF" opacity=".2" mask="url(#b)"><path d="M-8.604-7.464a.425.425 0 11-.849-.002.425.425 0 01.85.002M-10.199-5.853a.425.425 0 11-.849-.001.425.425 0 01.85.001M-5.373-7.464a.425.425 0 11-.85-.002.425.425 0 01.85.002M-6.968-5.853a.425.425 0 11-.85-.001.425.425 0 01.85.001M-2.141-7.464a.425.425 0 11-.85-.002.425.425 0 01.85.002M-3.736-5.853a.425.425 0 11-.85-.001.425.425 0 01.85.001M-8.604-4.242a.425.425 0 11-.849-.002.425.425 0 01.85.002M-10.199-2.63a.425.425 0 11-.849-.002.425.425 0 01.85.001M-5.373-4.242a.425.425 0 11-.85-.002.425.425 0 01.85.002M-6.968-2.63a.425.425 0 11-.85-.002.425.425 0 01.85.001M-2.141-4.242a.425.425 0 11-.85-.002.425.425 0 01.85.002M-3.736-2.63a.425.425 0 11-.85-.002.425.425 0 01.85.001M-8.605-1.022a.425.425 0 11-.85-.001.425.425 0 01.85.001M-10.2.59a.425.425 0 11-.85-.002.425.425 0 01.85.002M-5.374-1.022a.425.425 0 11-.85-.001.425.425 0 01.85.001M-6.97.59a.425.425 0 11-.848-.002.425.425 0 01.849.002M-2.143-1.022a.425.425 0 11-.849-.001.425.425 0 01.85.001M-3.738.59a.425.425 0 11-.849-.002.425.425 0 01.85.002M1.116-7.464a.425.425 0 11-.85-.002.425.425 0 01.85.002M-.479-5.853a.425.425 0 11-.849-.001.425.425 0 01.849.001M4.347-7.464a.425.425 0 11-.85-.002.425.425 0 01.85.002M2.752-5.853a.425.425 0 11-.85-.001.425.425 0 01.85.001M7.578-7.464a.425.425 0 11-.849-.002.425.425 0 01.85.002M5.984-5.853a.425.425 0 11-.85-.001.425.425 0 01.85.001M1.116-4.242a.425.425 0 11-.85-.002.425.425 0 01.85.002M-.479-2.63a.425.425 0 11-.849-.002.425.425 0 01.849.001M4.347-4.242a.425.425 0 11-.85-.002.425.425 0 01.85.002M2.752-2.63a.425.425 0 11-.85-.002.425.425 0 01.85.001M7.578-4.242a.425.425 0 11-.849-.002.425.425 0 01.85.002M5.984-2.63a.425.425 0 11-.85-.002.425.425 0 01.85.001M1.115-1.022a.425.425 0 11-.85-.001.425.425 0 01.85.001M-.48.59a.425.425 0 11-.85-.002.425.425 0 01.85.002M4.345-1.022a.425.425 0 11-.849-.001.425.425 0 01.85.001M2.75.59a.425.425 0 11-.849-.002.425.425 0 01.85.002M7.577-1.022a.425.425 0 11-.849-.001.425.425 0 01.849.001M5.982.59a.425.425 0 11-.849-.002.425.425 0 01.85.002M10.836-7.464a.425.425 0 11-.85-.002.425.425 0 01.85.002M9.24-5.853a.425.425 0 11-.848-.001.425.425 0 01.849.001M14.066-7.464a.425.425 0 11-.849-.002.425.425 0 01.85.002M12.471-5.853a.425.425 0 11-.849-.001.425.425 0 01.85.001M17.298-7.464a.425.425 0 11-.849-.002.425.425 0 01.85.002M15.703-5.853a.425.425 0 11-.849-.001.425.425 0 01.85.001M10.836-4.242a.425.425 0 11-.85-.002.425.425 0 01.85.002M9.24-2.63a.425.425 0 11-.848-.002.425.425 0 01.849.001M14.066-4.242a.425.425 0 11-.849-.002.425.425 0 01.85.002M12.471-2.63a.425.425 0 11-.849-.002.425.425 0 01.85.001M17.298-4.242a.425.425 0 11-.849-.002.425.425 0 01.85.002M15.703-2.63a.425.425 0 11-.849-.002.425.425 0 01.85.001M10.834-1.022a.425.425 0 11-.849-.001.425.425 0 01.85.001M9.24.59a.425.425 0 11-.85-.002.425.425 0 01.85.002M14.065-1.022a.425.425 0 11-.85-.001.425.425 0 01.85.001M12.47.59a.425.425 0 11-.849-.002.425.425 0 01.849.002M17.297-1.022a.425.425 0 11-.85-.001.425.425 0 01.85.001M15.702.59a.425.425 0 11-.85-.002.425.425 0 01.85.002M20.555-7.464a.425.425 0 11-.849-.002.425.425 0 01.85.002M18.96-5.853a.425.425 0 11-.849-.001.425.425 0 01.85.001M23.786-7.464a.425.425 0 11-.849-.002.425.425 0 01.85.002M22.191-5.853a.425.425 0 11-.849-.001.425.425 0 01.85.001M27.018-7.464a.425.425 0 11-.85-.002.425.425 0 01.85.002M25.423-5.853a.425.425 0 11-.85-.001.425.425 0 01.85.001M20.555-4.242a.425.425 0 11-.849-.002.425.425 0 01.85.002M18.96-2.63a.425.425 0 11-.849-.002.425.425 0 01.85.001M23.786-4.242a.425.425 0 11-.849-.002.425.425 0 01.85.002M22.191-2.63a.425.425 0 11-.849-.002.425.425 0 01.85.001M27.018-4.242a.425.425 0 11-.85-.002.425.425 0 01.85.002M25.423-2.63a.425.425 0 11-.85-.002.425.425 0 01.85.001M20.554-1.022a.425.425 0 11-.849-.001.425.425 0 01.85.001M18.96.59a.425.425 0 11-.85-.002.425.425 0 01.85.002M23.785-1.022a.425.425 0 11-.85-.001.425.425 0 01.85.001M22.19.59a.425.425 0 11-.85-.002.425.425 0 01.85.002M27.017-1.022a.425.425 0 11-.85-.001.425.425 0 01.85.001M25.422.59a.425.425 0 11-.85-.002.425.425 0 01.85.002M30.275-7.464a.425.425 0 11-.849-.002.425.425 0 01.85.002M28.68-5.853a.425.425 0 11-.849-.001.425.425 0 01.85.001M33.506-7.464a.425.425 0 11-.85-.002.425.425 0 01.85.002M31.91-5.853a.425.425 0 11-.848-.001.425.425 0 01.849.001M36.738-7.464a.425.425 0 11-.85-.002.425.425 0 01.85.002M35.143-5.853a.425.425 0 11-.85-.001.425.425 0 01.85.001M30.275-4.242a.425.425 0 11-.849-.002.425.425 0 01.85.002M28.68-2.63a.425.425 0 11-.849-.002.425.425 0 01.85.001M33.506-4.242a.425.425 0 11-.85-.002.425.425 0 01.85.002M31.91-2.63a.425.425 0 11-.848-.002.425.425 0 01.849.001M36.738-4.242a.425.425 0 11-.85-.002.425.425 0 01.85.002M35.143-2.63a.425.425 0 11-.85-.002.425.425 0 01.85.001M30.274-1.022a.425.425 0 11-.85-.001.425.425 0 01.85.001M28.679.59a.425.425 0 11-.85-.002.425.425 0 01.85.002M33.504-1.022a.425.425 0 11-.849-.001.425.425 0 01.85.001M31.91.59a.425.425 0 11-.85-.002.425.425 0 01.85.002M36.736-1.022a.425.425 0 11-.849-.001.425.425 0 01.85.001M35.141.59a.425.425 0 11-.849-.002.425.425 0 01.85.002M-8.604 2.255a.425.425 0 11-.849-.001.425.425 0 01.85.001M-10.199 3.867a.424.424 0 11-.849-.001.424.424 0 01.85.001M-5.373 2.255a.425.425 0 11-.85-.001.425.425 0 01.85.001M-6.968 3.867a.424.424 0 11-.849-.001.424.424 0 01.849.001M-2.141 2.255a.425.425 0 11-.85-.001.425.425 0 01.85.001M-3.736 3.867a.424.424 0 11-.85-.001.424.424 0 01.85.001M-8.604 5.477a.425.425 0 11-.849-.001.425.425 0 01.85.001M-10.199 7.09a.424.424 0 11-.849-.002.424.424 0 01.85.001M-5.373 5.477a.425.425 0 11-.85-.001.425.425 0 01.85.001M-6.968 7.09a.424.424 0 11-.849-.002.424.424 0 01.849.001M-2.141 5.477a.425.425 0 11-.85-.001.425.425 0 01.85.001M-3.736 7.09a.424.424 0 11-.85-.002.424.424 0 01.85.001M-8.605 8.698a.424.424 0 11-.849-.001.424.424 0 01.849.001M-10.2 10.31a.424.424 0 11-.849-.002.424.424 0 01.849.002M-5.374 8.698a.424.424 0 11-.85-.001.424.424 0 01.85.001M-6.97 10.31a.424.424 0 11-.848-.002.424.424 0 01.849.002M-2.143 8.698a.424.424 0 11-.849-.001.424.424 0 01.85.001M-3.738 10.31a.424.424 0 11-.848-.002.424.424 0 01.848.002M1.116 2.255a.425.425 0 11-.85-.001.425.425 0 01.85.001M-.479 3.867a.424.424 0 11-.849-.001.424.424 0 01.849.001M4.347 2.255a.425.425 0 11-.85-.001.425.425 0 01.85.001M2.752 3.867a.424.424 0 11-.85-.001.424.424 0 01.85.001M7.578 2.255a.425.425 0 11-.849-.001.425.425 0 01.85.001M5.984 3.867a.424.424 0 11-.85-.001.424.424 0 01.85.001M1.116 5.477a.425.425 0 11-.85-.001.425.425 0 01.85.001M-.479 7.09a.424.424 0 11-.849-.002.424.424 0 01.849.001M4.347 5.477a.425.425 0 11-.85-.001.425.425 0 01.85.001M2.752 7.09a.424.424 0 11-.85-.002.424.424 0 01.85.001M7.578 5.477a.425.425 0 11-.849-.001.425.425 0 01.85.001M5.984 7.09a.424.424 0 11-.85-.002.424.424 0 01.85.001M1.115 8.698a.424.424 0 11-.85-.001.424.424 0 01.85.001M-.48 10.31a.424.424 0 11-.85-.002.424.424 0 01.85.002M4.345 8.698a.424.424 0 11-.849-.001.424.424 0 01.85.001M2.75 10.31a.424.424 0 11-.849-.002.424.424 0 01.85.002M7.577 8.698a.424.424 0 11-.849-.001.424.424 0 01.849.001M5.982 10.31a.424.424 0 11-.849-.002.424.424 0 01.85.002M10.836 2.255a.425.425 0 11-.85-.001.425.425 0 01.85.001M9.24 3.867a.424.424 0 11-.848-.001.424.424 0 01.849.001M14.066 2.255a.425.425 0 11-.849-.001.425.425 0 01.85.001M12.471 3.867a.424.424 0 11-.848-.001.424.424 0 01.848.001M17.298 2.255a.425.425 0 11-.849-.001.425.425 0 01.85.001M15.703 3.867a.424.424 0 11-.849-.001.424.424 0 01.85.001M10.836 5.477a.425.425 0 11-.85-.001.425.425 0 01.85.001M9.24 7.09a.424.424 0 11-.848-.002.424.424 0 01.849.001M14.066 5.477a.425.425 0 11-.849-.001.425.425 0 01.85.001M12.471 7.09a.424.424 0 11-.848-.002.424.424 0 01.848.001M17.298 5.477a.425.425 0 11-.849-.001.425.425 0 01.85.001M15.703 7.09a.424.424 0 11-.849-.002.424.424 0 01.85.001M10.834 8.698a.424.424 0 11-.848-.001.424.424 0 01.848.001M9.24 10.31a.424.424 0 11-.85-.002.424.424 0 01.85.002M14.065 8.698a.424.424 0 11-.849-.001.424.424 0 01.849.001M12.47 10.31a.424.424 0 11-.849-.002.424.424 0 01.849.002M17.297 8.698a.424.424 0 11-.849-.001.424.424 0 01.849.001M15.702 10.31a.424.424 0 11-.849-.002.424.424 0 01.849.002M20.555 2.255a.425.425 0 11-.849-.001.425.425 0 01.85.001M18.96 3.867a.424.424 0 11-.848-.001.424.424 0 01.849.001M23.786 2.255a.425.425 0 11-.849-.001.425.425 0 01.85.001M22.191 3.867a.424.424 0 11-.849-.001.424.424 0 01.85.001M27.018 2.255a.425.425 0 11-.85-.001.425.425 0 01.85.001M25.423 3.867a.424.424 0 11-.849-.001.424.424 0 01.849.001M20.555 5.477a.425.425 0 11-.849-.001.425.425 0 01.85.001M18.96 7.09a.424.424 0 11-.848-.002.424.424 0 01.849.001M23.786 5.477a.425.425 0 11-.849-.001.425.425 0 01.85.001M22.191 7.09a.424.424 0 11-.849-.002.424.424 0 01.85.001M27.018 5.477a.425.425 0 11-.85-.001.425.425 0 01.85.001M25.423 7.09a.424.424 0 11-.849-.002.424.424 0 01.849.001M20.554 8.698a.424.424 0 11-.849-.001.424.424 0 01.85.001M18.96 10.31a.424.424 0 11-.85-.002.424.424 0 01.85.002M23.785 8.698a.424.424 0 11-.85-.001.424.424 0 01.85.001M22.19 10.31a.424.424 0 11-.849-.002.424.424 0 01.849.002M27.017 8.698a.424.424 0 11-.85-.001.424.424 0 01.85.001M25.422 10.31a.424.424 0 11-.85-.002.424.424 0 01.85.002M30.275 2.255a.425.425 0 11-.849-.001.425.425 0 01.85.001M28.68 3.867a.424.424 0 11-.849-.001.424.424 0 01.85.001M33.506 2.255a.425.425 0 11-.85-.001.425.425 0 01.85.001M31.91 3.867a.424.424 0 11-.848-.001.424.424 0 01.849.001M36.738 2.255a.425.425 0 11-.85-.001.425.425 0 01.85.001M35.143 3.867a.424.424 0 11-.85-.001.424.424 0 01.85.001M30.275 5.477a.425.425 0 11-.849-.001.425.425 0 01.85.001M28.68 7.09a.424.424 0 11-.849-.002.424.424 0 01.85.001M33.506 5.477a.425.425 0 11-.85-.001.425.425 0 01.85.001M31.91 7.09a.424.424 0 11-.848-.002.424.424 0 01.849.001M36.738 5.477a.425.425 0 11-.85-.001.425.425 0 01.85.001M35.143 7.09a.424.424 0 11-.85-.002.424.424 0 01.85.001M30.274 8.698a.424.424 0 11-.85-.001.424.424 0 01.85.001M28.679 10.31a.424.424 0 11-.849-.002.424.424 0 01.849.002M33.504 8.698a.424.424 0 11-.848-.001.424.424 0 01.848.001M31.91 10.31a.424.424 0 11-.85-.002.424.424 0 01.85.002M36.736 8.698a.424.424 0 11-.849-.002.424.424 0 01.85.002M35.141 10.31a.424.424 0 11-.849-.002.424.424 0 01.85.002M-8.604 11.975a.424.424 0 11-.849-.001.424.424 0 01.85.001M-10.199 13.587a.425.425 0 11-.849-.001.425.425 0 01.85.001M-5.373 11.975a.424.424 0 11-.85-.001.424.424 0 01.85.001M-6.968 13.587a.425.425 0 11-.85-.001.425.425 0 01.85.001M-2.141 11.975a.424.424 0 11-.85-.001.424.424 0 01.85.001M-3.736 13.587a.425.425 0 11-.85-.001.425.425 0 01.85.001M-8.604 15.197a.424.424 0 11-.849-.001.424.424 0 01.85.001M-10.199 16.81a.425.425 0 11-.849-.003.425.425 0 01.85.002M-5.373 15.197a.424.424 0 11-.85-.001.424.424 0 01.85.001M-6.968 16.81a.425.425 0 11-.85-.003.425.425 0 01.85.002M-2.141 15.197a.424.424 0 11-.85-.001.424.424 0 01.85.001M-3.736 16.81a.425.425 0 11-.85-.003.425.425 0 01.85.002M-8.605 18.418a.424.424 0 11-.849-.002.424.424 0 01.849.002M-10.2 20.03a.425.425 0 11-.85-.002.425.425 0 01.85.002M-5.374 18.418a.424.424 0 11-.85-.002.424.424 0 01.85.002M-6.97 20.03a.425.425 0 11-.848-.002.425.425 0 01.849.002M-2.143 18.418a.424.424 0 11-.849-.002.424.424 0 01.85.002M-3.738 20.03a.425.425 0 11-.849-.002.425.425 0 01.85.002M1.116 11.975a.424.424 0 11-.849-.001.424.424 0 01.849.001M-.479 13.587a.425.425 0 11-.85-.001.425.425 0 01.85.001M4.347 11.975a.424.424 0 11-.85-.001.424.424 0 01.85.001M2.752 13.587a.425.425 0 11-.85-.001.425.425 0 01.85.001M7.578 11.975a.424.424 0 11-.848-.001.424.424 0 01.848.001M5.984 13.587a.425.425 0 11-.85-.001.425.425 0 01.85.001M1.116 15.197a.424.424 0 11-.849-.001.424.424 0 01.849.001M-.479 16.81a.425.425 0 11-.849-.003.425.425 0 01.849.002M4.347 15.197a.424.424 0 11-.85-.001.424.424 0 01.85.001M2.752 16.81a.425.425 0 11-.85-.003.425.425 0 01.85.002M7.578 15.197a.424.424 0 11-.848-.001.424.424 0 01.848.001M5.984 16.81a.425.425 0 11-.85-.003.425.425 0 01.85.002M1.115 18.418a.424.424 0 11-.85-.002.424.424 0 01.85.002M-.48 20.03a.425.425 0 11-.85-.002.425.425 0 01.85.002M4.345 18.418a.424.424 0 11-.849-.002.424.424 0 01.85.002M2.75 20.03a.425.425 0 11-.849-.002.425.425 0 01.85.002M7.577 18.418a.424.424 0 11-.849-.002.424.424 0 01.849.002M5.982 20.03a.425.425 0 11-.849-.002.425.425 0 01.85.002M10.836 11.975a.424.424 0 11-.85-.001.424.424 0 01.85.001M9.24 13.587a.425.425 0 11-.848-.001.425.425 0 01.849.001M14.066 11.975a.424.424 0 11-.849-.001.424.424 0 01.85.001M12.471 13.587a.425.425 0 11-.849-.001.425.425 0 01.85.001M17.298 11.975a.424.424 0 11-.849-.001.424.424 0 01.85.001M15.703 13.587a.425.425 0 11-.849-.001.425.425 0 01.85.001M10.836 15.197a.424.424 0 11-.85-.001.424.424 0 01.85.001M9.24 16.81a.425.425 0 11-.848-.003.425.425 0 01.849.002M14.066 15.197a.424.424 0 11-.849-.001.424.424 0 01.85.001M12.471 16.81a.425.425 0 11-.849-.003.425.425 0 01.85.002M17.298 15.197a.424.424 0 11-.849-.001.424.424 0 01.85.001M15.703 16.81a.425.425 0 11-.849-.003.425.425 0 01.85.002M10.834 18.418a.424.424 0 11-.848-.002.424.424 0 01.848.002M9.24 20.03a.425.425 0 11-.85-.002.425.425 0 01.85.002M14.065 18.418a.424.424 0 11-.849-.002.424.424 0 01.849.002M12.47 20.03a.425.425 0 11-.849-.002.425.425 0 01.849.002M17.297 18.418a.424.424 0 11-.849-.002.424.424 0 01.849.002M15.702 20.03a.425.425 0 11-.85-.002.425.425 0 01.85.002M20.555 11.975a.424.424 0 11-.848-.001.424.424 0 01.848.001M18.96 13.587a.425.425 0 11-.849-.001.425.425 0 01.85.001M23.786 11.975a.424.424 0 11-.849-.001.424.424 0 01.85.001M22.191 13.587a.425.425 0 11-.849-.001.425.425 0 01.85.001M27.018 11.975a.424.424 0 11-.849-.001.424.424 0 01.849.001M25.423 13.587a.425.425 0 11-.85-.001.425.425 0 01.85.001M20.555 15.197a.424.424 0 11-.848-.001.424.424 0 01.848.001M18.96 16.81a.425.425 0 11-.849-.003.425.425 0 01.85.002M23.786 15.197a.424.424 0 11-.849-.001.424.424 0 01.85.001M22.191 16.81a.425.425 0 11-.849-.003.425.425 0 01.85.002M27.018 15.197a.424.424 0 11-.849-.001.424.424 0 01.849.001M25.423 16.81a.425.425 0 11-.85-.003.425.425 0 01.85.002M20.554 18.418a.424.424 0 11-.849-.002.424.424 0 01.85.002M18.96 20.03a.425.425 0 11-.85-.002.425.425 0 01.85.002M23.785 18.418a.424.424 0 11-.85-.002.424.424 0 01.85.002M22.19 20.03a.425.425 0 11-.85-.002.425.425 0 01.85.002M27.017 18.418a.424.424 0 11-.85-.002.424.424 0 01.85.002M25.422 20.03a.425.425 0 11-.85-.002.425.425 0 01.85.002M30.275 11.975a.424.424 0 11-.849-.001.424.424 0 01.85.001M28.68 13.587a.425.425 0 11-.849-.001.425.425 0 01.85.001M33.506 11.975a.424.424 0 11-.85-.001.424.424 0 01.85.001M31.91 13.587a.425.425 0 11-.848-.001.425.425 0 01.849.001M36.738 11.975a.424.424 0 11-.85-.001.424.424 0 01.85.001M35.143 13.587a.425.425 0 11-.85-.001.425.425 0 01.85.001M30.275 15.197a.424.424 0 11-.849-.001.424.424 0 01.85.001M28.68 16.81a.425.425 0 11-.849-.003.425.425 0 01.85.002M33.506 15.197a.424.424 0 11-.85-.001.424.424 0 01.85.001M31.91 16.81a.425.425 0 11-.848-.003.425.425 0 01.849.002M36.738 15.197a.424.424 0 11-.85-.001.424.424 0 01.85.001M35.143 16.81a.425.425 0 11-.85-.003.425.425 0 01.85.002M30.274 18.418a.424.424 0 11-.85-.002.424.424 0 01.85.002M28.679 20.03a.425.425 0 11-.85-.002.425.425 0 01.85.002M33.504 18.418a.424.424 0 11-.848-.002.424.424 0 01.848.002M31.91 20.03a.425.425 0 11-.85-.002.425.425 0 01.85.002M36.736 18.418a.424.424 0 11-.849-.002.424.424 0 01.85.002M35.141 20.03a.425.425 0 11-.849-.002.425.425 0 01.85.002M-8.604 21.695a.425.425 0 11-.849-.002.425.425 0 01.85.002M-10.199 23.307a.425.425 0 11-.849-.002.425.425 0 01.85.002M-5.373 21.695a.425.425 0 11-.85-.002.425.425 0 01.85.002M-6.968 23.307a.425.425 0 11-.85-.002.425.425 0 01.85.002M-2.141 21.695a.425.425 0 11-.85-.002.425.425 0 01.85.002M-3.736 23.307a.425.425 0 11-.85-.002.425.425 0 01.85.002M-8.604 24.917a.425.425 0 11-.849-.002.425.425 0 01.85.002M-10.199 26.529a.425.425 0 11-.849-.002.425.425 0 01.85.002M-5.373 24.917a.425.425 0 11-.85-.002.425.425 0 01.85.002M-6.968 26.529a.425.425 0 11-.85-.002.425.425 0 01.85.002M-2.141 24.917a.425.425 0 11-.85-.002.425.425 0 01.85.002M-3.736 26.529a.425.425 0 11-.85-.002.425.425 0 01.85.002M-8.605 28.138a.425.425 0 11-.85-.002.425.425 0 01.85.002M-10.2 29.75a.424.424 0 11-.849-.002.424.424 0 01.849.002M-5.374 28.138a.425.425 0 11-.85-.002.425.425 0 01.85.002M-6.97 29.75a.424.424 0 11-.848-.002.424.424 0 01.849.002M-2.143 28.138a.425.425 0 11-.849-.002.425.425 0 01.85.002M-3.738 29.75a.424.424 0 11-.848-.002.424.424 0 01.848.002M1.116 21.695a.425.425 0 11-.85-.002.425.425 0 01.85.002M-.479 23.307a.425.425 0 11-.849-.002.425.425 0 01.849.002M4.347 21.695a.425.425 0 11-.85-.002.425.425 0 01.85.002M2.752 23.307a.425.425 0 11-.85-.002.425.425 0 01.85.002M7.578 21.695a.425.425 0 11-.849-.002.425.425 0 01.85.002M5.984 23.307a.425.425 0 11-.85-.002.425.425 0 01.85.002M1.116 24.917a.425.425 0 11-.85-.002.425.425 0 01.85.002M-.479 26.529a.425.425 0 11-.849-.002.425.425 0 01.849.002M4.347 24.917a.425.425 0 11-.85-.002.425.425 0 01.85.002M2.752 26.529a.425.425 0 11-.85-.002.425.425 0 01.85.002M7.578 24.917a.425.425 0 11-.849-.002.425.425 0 01.85.002M5.984 26.529a.425.425 0 11-.85-.002.425.425 0 01.85.002M1.115 28.138a.425.425 0 11-.85-.002.425.425 0 01.85.002M-.48 29.75a.424.424 0 11-.85-.002.424.424 0 01.85.002M4.345 28.138a.425.425 0 11-.849-.002.425.425 0 01.85.002M2.75 29.75a.424.424 0 11-.849-.002.424.424 0 01.85.002M7.577 28.138a.425.425 0 11-.849-.002.425.425 0 01.849.002M5.982 29.75a.424.424 0 11-.849-.002.424.424 0 01.85.002M10.836 21.695a.425.425 0 11-.85-.002.425.425 0 01.85.002M9.24 23.307a.425.425 0 11-.848-.002.425.425 0 01.849.002M14.066 21.695a.425.425 0 11-.849-.002.425.425 0 01.85.002M12.471 23.307a.425.425 0 11-.849-.002.425.425 0 01.85.002M17.298 21.695a.425.425 0 11-.849-.002.425.425 0 01.85.002M15.703 23.307a.425.425 0 11-.849-.002.425.425 0 01.85.002M10.836 24.917a.425.425 0 11-.85-.002.425.425 0 01.85.002M9.24 26.529a.425.425 0 11-.848-.002.425.425 0 01.849.002M14.066 24.917a.425.425 0 11-.849-.002.425.425 0 01.85.002M12.471 26.529a.425.425 0 11-.849-.002.425.425 0 01.85.002M17.298 24.917a.425.425 0 11-.849-.002.425.425 0 01.85.002M15.703 26.529a.425.425 0 11-.849-.002.425.425 0 01.85.002M10.834 28.138a.425.425 0 11-.849-.002.425.425 0 01.85.002M9.24 29.75a.424.424 0 11-.85-.002.424.424 0 01.85.002M14.065 28.138a.425.425 0 11-.85-.002.425.425 0 01.85.002M12.47 29.75a.424.424 0 11-.849-.002.424.424 0 01.849.002M17.297 28.138a.425.425 0 11-.85-.002.425.425 0 01.85.002M15.702 29.75a.424.424 0 11-.849-.002.424.424 0 01.849.002M20.555 21.695a.425.425 0 11-.849-.002.425.425 0 01.85.002M18.96 23.307a.425.425 0 11-.849-.002.425.425 0 01.85.002M23.786 21.695a.425.425 0 11-.849-.002.425.425 0 01.85.002M22.191 23.307a.425.425 0 11-.849-.002.425.425 0 01.85.002M27.018 21.695a.425.425 0 11-.85-.002.425.425 0 01.85.002M25.423 23.307a.425.425 0 11-.85-.002.425.425 0 01.85.002M20.555 24.917a.425.425 0 11-.849-.002.425.425 0 01.85.002M18.96 26.529a.425.425 0 11-.849-.002.425.425 0 01.85.002M23.786 24.917a.425.425 0 11-.849-.002.425.425 0 01.85.002M22.191 26.529a.425.425 0 11-.849-.002.425.425 0 01.85.002M27.018 24.917a.425.425 0 11-.85-.002.425.425 0 01.85.002M25.423 26.529a.425.425 0 11-.85-.002.425.425 0 01.85.002M20.554 28.138a.425.425 0 11-.849-.002.425.425 0 01.85.002M18.96 29.75a.424.424 0 11-.85-.002.424.424 0 01.85.002M23.785 28.138a.425.425 0 11-.85-.002.425.425 0 01.85.002M22.19 29.75a.424.424 0 11-.849-.002.424.424 0 01.849.002M27.017 28.138a.425.425 0 11-.85-.002.425.425 0 01.85.002M25.422 29.75a.424.424 0 11-.85-.002.424.424 0 01.85.002M30.275 21.695a.425.425 0 11-.849-.002.425.425 0 01.85.002M28.68 23.307a.425.425 0 11-.849-.002.425.425 0 01.85.002M33.506 21.695a.425.425 0 11-.85-.002.425.425 0 01.85.002M31.91 23.307a.425.425 0 11-.848-.002.425.425 0 01.849.002M36.738 21.695a.425.425 0 11-.85-.002.425.425 0 01.85.002M35.143 23.307a.425.425 0 11-.85-.002.425.425 0 01.85.002M30.275 24.917a.425.425 0 11-.849-.002.425.425 0 01.85.002M28.68 26.529a.425.425 0 11-.849-.002.425.425 0 01.85.002M33.506 24.917a.425.425 0 11-.85-.002.425.425 0 01.85.002M31.91 26.529a.425.425 0 11-.848-.002.425.425 0 01.849.002M36.738 24.917a.425.425 0 11-.85-.002.425.425 0 01.85.002M35.143 26.529a.425.425 0 11-.85-.002.425.425 0 01.85.002M30.274 28.138a.425.425 0 11-.85-.002.425.425 0 01.85.002M28.679 29.75a.424.424 0 11-.849-.002.424.424 0 01.849.002M33.504 28.138a.425.425 0 11-.849-.002.425.425 0 01.85.002M31.91 29.75a.424.424 0 11-.85-.002.424.424 0 01.85.002M36.736 28.138a.425.425 0 11-.849-.002.425.425 0 01.85.002M35.141 29.75a.424.424 0 11-.849-.002.424.424 0 01.85.002M-8.604 31.415a.425.425 0 11-.849-.002.425.425 0 01.85.002M-10.199 33.027a.424.424 0 11-.849-.002.424.424 0 01.85.002M-5.373 31.415a.425.425 0 11-.85-.002.425.425 0 01.85.002M-6.968 33.027a.424.424 0 11-.849-.002.424.424 0 01.849.002M-2.141 31.415a.425.425 0 11-.85-.002.425.425 0 01.85.002M-3.736 33.027a.424.424 0 11-.85-.002.424.424 0 01.85.002M-8.604 34.637a.424.424 0 11-.849-.002.424.424 0 01.85.002M-10.199 36.249a.424.424 0 11-.849-.002.424.424 0 01.85.002M-5.373 34.637a.424.424 0 11-.85-.002.424.424 0 01.85.002M-6.968 36.249a.424.424 0 11-.849-.002.424.424 0 01.849.002M-2.141 34.637a.424.424 0 11-.85-.002.424.424 0 01.85.002M-3.736 36.249a.424.424 0 11-.85-.002.424.424 0 01.85.002M-8.605 37.857a.424.424 0 11-.849-.001.424.424 0 01.849.001M-10.2 39.47a.424.424 0 11-.849-.002.424.424 0 01.849.001M-5.374 37.857a.424.424 0 11-.85-.001.424.424 0 01.85.001M-6.97 39.47a.424.424 0 11-.848-.002.424.424 0 01.849.001M-2.143 37.857a.424.424 0 11-.849-.001.424.424 0 01.85.001M-3.738 39.47a.424.424 0 11-.848-.002.424.424 0 01.848.001M1.116 31.415a.425.425 0 11-.85-.002.425.425 0 01.85.002M-.479 33.027a.424.424 0 11-.849-.002.424.424 0 01.849.002M4.347 31.415a.425.425 0 11-.85-.002.425.425 0 01.85.002M2.752 33.027a.424.424 0 11-.85-.002.424.424 0 01.85.002M7.578 31.415a.425.425 0 11-.849-.002.425.425 0 01.85.002M5.984 33.027a.424.424 0 11-.85-.002.424.424 0 01.85.002M1.116 34.637a.424.424 0 11-.849-.002.424.424 0 01.849.002M-.479 36.249a.424.424 0 11-.849-.002.424.424 0 01.849.002M4.347 34.637a.424.424 0 11-.85-.002.424.424 0 01.85.002M2.752 36.249a.424.424 0 11-.85-.002.424.424 0 01.85.002M7.578 34.637a.424.424 0 11-.848-.002.424.424 0 01.848.002M5.984 36.249a.424.424 0 11-.85-.002.424.424 0 01.85.002M1.115 37.857a.424.424 0 11-.85-.001.424.424 0 01.85.001M-.48 39.47a.424.424 0 11-.85-.002.424.424 0 01.85.001M4.345 37.857a.424.424 0 11-.849-.001.424.424 0 01.85.001M2.75 39.47a.424.424 0 11-.849-.002.424.424 0 01.85.001M7.577 37.857a.424.424 0 11-.849-.001.424.424 0 01.849.001M5.982 39.47a.424.424 0 11-.849-.002.424.424 0 01.85.001M10.836 31.415a.425.425 0 11-.85-.002.425.425 0 01.85.002M9.24 33.027a.424.424 0 11-.848-.002.424.424 0 01.849.002M14.066 31.415a.425.425 0 11-.849-.002.425.425 0 01.85.002M12.471 33.027a.424.424 0 11-.848-.002.424.424 0 01.848.002M17.298 31.415a.425.425 0 11-.849-.002.425.425 0 01.85.002M15.703 33.027a.424.424 0 11-.849-.002.424.424 0 01.85.002M10.836 34.637a.424.424 0 11-.85-.002.424.424 0 01.85.002M9.24 36.249a.424.424 0 11-.848-.002.424.424 0 01.849.002M14.066 34.637a.424.424 0 11-.849-.002.424.424 0 01.85.002M12.471 36.249a.424.424 0 11-.848-.002.424.424 0 01.848.002M17.298 34.637a.424.424 0 11-.849-.002.424.424 0 01.85.002M15.703 36.249a.424.424 0 11-.849-.002.424.424 0 01.85.002M10.834 37.857a.424.424 0 11-.848-.001.424.424 0 01.848.001M9.24 39.47a.424.424 0 11-.85-.002.424.424 0 01.85.001M14.065 37.857a.424.424 0 11-.849-.001.424.424 0 01.849.001M12.47 39.47a.424.424 0 11-.849-.002.424.424 0 01.849.001M17.297 37.857a.424.424 0 11-.849-.001.424.424 0 01.849.001M15.702 39.47a.424.424 0 11-.849-.002.424.424 0 01.849.001M20.555 31.415a.425.425 0 11-.849-.002.425.425 0 01.85.002M18.96 33.027a.424.424 0 11-.848-.002.424.424 0 01.849.002M23.786 31.415a.425.425 0 11-.849-.002.425.425 0 01.85.002M22.191 33.027a.424.424 0 11-.849-.002.424.424 0 01.85.002M27.018 31.415a.425.425 0 11-.85-.002.425.425 0 01.85.002M25.423 33.027a.424.424 0 11-.849-.002.424.424 0 01.849.002M20.555 34.637a.424.424 0 11-.848-.002.424.424 0 01.848.002M18.96 36.249a.424.424 0 11-.848-.002.424.424 0 01.849.002M23.786 34.637a.424.424 0 11-.849-.002.424.424 0 01.85.002M22.191 36.249a.424.424 0 11-.849-.002.424.424 0 01.85.002M27.018 34.637a.424.424 0 11-.849-.002.424.424 0 01.849.002M25.423 36.249a.424.424 0 11-.849-.002.424.424 0 01.849.002M20.554 37.857a.424.424 0 11-.849-.001.424.424 0 01.85.001M18.96 39.47a.424.424 0 11-.85-.002.424.424 0 01.85.001M23.785 37.857a.424.424 0 11-.85-.001.424.424 0 01.85.001M22.19 39.47a.424.424 0 11-.849-.002.424.424 0 01.849.001M27.017 37.857a.424.424 0 11-.85-.001.424.424 0 01.85.001M25.422 39.47a.424.424 0 11-.85-.002.424.424 0 01.85.001M30.275 31.415a.425.425 0 11-.849-.002.425.425 0 01.85.002M28.68 33.027a.424.424 0 11-.849-.002.424.424 0 01.85.002M33.506 31.415a.425.425 0 11-.85-.002.425.425 0 01.85.002M31.91 33.027a.424.424 0 11-.848-.002.424.424 0 01.849.002M36.738 31.415a.425.425 0 11-.85-.002.425.425 0 01.85.002M35.143 33.027a.424.424 0 11-.85-.002.424.424 0 01.85.002M30.275 34.637a.424.424 0 11-.849-.002.424.424 0 01.85.002M28.68 36.249a.424.424 0 11-.849-.002.424.424 0 01.85.002M33.506 34.637a.424.424 0 11-.85-.002.424.424 0 01.85.002M31.91 36.249a.424.424 0 11-.848-.002.424.424 0 01.849.002M36.738 34.637a.424.424 0 11-.85-.002.424.424 0 01.85.002M35.143 36.249a.424.424 0 11-.85-.002.424.424 0 01.85.002M30.274 37.857a.424.424 0 11-.85-.001.424.424 0 01.85.001M28.679 39.47a.424.424 0 11-.849-.002.424.424 0 01.849.001M33.504 37.857a.424.424 0 11-.848-.001.424.424 0 01.848.001M31.91 39.47a.424.424 0 11-.85-.002.424.424 0 01.85.001M36.736 37.857a.424.424 0 11-.849-.001.424.424 0 01.85.001M35.141 39.47a.424.424 0 11-.849-.002.424.424 0 01.85.001"/></g></g><path d="M17.636 30.232a1.108 1.108 0 01-1.108-1.107v-5.09c0-.61.497-1.107 1.108-1.107h11.47c.612 0 1.108.497 1.108 1.108v5.089c0 .61-.496 1.107-1.108 1.107h-11.47z" stroke="#FFF" fill="#000"/><path d="M19.977 26.439h.324c.393 0 .684-.13.684-.49 0-.319-.24-.513-.592-.513h-.416v1.003zm.43-1.493c.54 0 1.183.264 1.183.99 0 .73-.637.993-1.183.993h-.43v1.252h-.572v-3.235h1.002zM22.888 27.691h.107c.822 0 1.386-.282 1.386-1.1 0-.753-.458-1.155-1.23-1.155h-.263v2.255zm-.573-2.745h.915c.827 0 1.756.435 1.756 1.604 0 1.197-.915 1.631-1.802 1.631h-.869v-3.235zM26.432 26.841v1.34h-.573v-3.235h1.728v.49h-1.155v.915h1.155v.49z" fill="#FFF"/><path d="M37.56 39.968a3.6 3.6 0 10-5.09-5.091 3.6 3.6 0 005.09 5.09zm.555 1.12a4.8 4.8 0 11.813-.884l4.017 4.017-.849.848-3.981-3.981z" fill="#FFF" fill-rule="nonzero"/></g></svg>