<svg width="64" height="65" xmlns="http://www.w3.org/2000/svg" xmlns:xlink="http://www.w3.org/1999/xlink"><defs><path d="M1.452 22.653l11.55-6.776a.67.67 0 00.331-.578V1.517A.669.669 0 0012.326.94L.775 7.717a.67.67 0 00-.33.577v13.782c0 .517.561.839 1.007.577" id="a"/><path d="M1.05 7.9l12.276 7.09c.207.12.461.122.67.005L26.28 8.107a.676.676 0 000-1.18L14.047.086a.678.678 0 00-.651-.005L1.067 6.719A.676.676 0 001.05 7.9" id="b"/></defs><g fill="none" fill-rule="evenodd"><circle cx="32" cy="32" r="32" transform="translate(0 .538)" fill="#F5F5F5"/><path d="M29.882 48.654L18.33 41.876A.668.668 0 0118 41.3V27.517c0-.517.561-.839 1.007-.577l11.551 6.778c.205.12.331.339.331.576v13.783a.669.669 0 01-1.007.577" fill="#1A1A1A"/><use fill="#00A82D" xlink:href="#a" transform="translate(32 26)"/><use fill="#CEDC00" xlink:href="#b" transform="translate(18 17)"/></g></svg>